solid OpenSCAD_Model
  facet normal 0.688326 -0.725401 0
    outer loop
      vertex 104.346 -111.897 0
      vertex 106.283 -110.059 20
      vertex 104.346 -111.897 20
    endloop
  endfacet
  facet normal 0.688326 -0.725401 0
    outer loop
      vertex 106.283 -110.059 20
      vertex 104.346 -111.897 0
      vertex 106.283 -110.059 0
    endloop
  endfacet
  facet normal 0.748854 -0.662735 0
    outer loop
      vertex 113.701 -102.377 20
      vertex 115.471 -100.377 0
      vertex 115.471 -100.377 20
    endloop
  endfacet
  facet normal 0.748854 -0.662735 0
    outer loop
      vertex 115.471 -100.377 0
      vertex 113.701 -102.377 20
      vertex 113.701 -102.377 0
    endloop
  endfacet
  facet normal 0.725401 -0.688326 0
    outer loop
      vertex 110.059 -106.283 20
      vertex 111.897 -104.346 0
      vertex 111.897 -104.346 20
    endloop
  endfacet
  facet normal 0.725401 -0.688326 0
    outer loop
      vertex 111.897 -104.346 0
      vertex 110.059 -106.283 20
      vertex 110.059 -106.283 0
    endloop
  endfacet
  facet normal 0.771677 -0.636015 0
    outer loop
      vertex 117.205 -98.3465 20
      vertex 118.205 -97.1332 0
      vertex 118.205 -97.1332 20
    endloop
  endfacet
  facet normal 0.771677 -0.636015 0
    outer loop
      vertex 118.205 -97.1332 0
      vertex 117.205 -98.3465 20
      vertex 117.205 -98.3465 0
    endloop
  endfacet
  facet normal 0.713074 -0.701089 0
    outer loop
      vertex 108.187 -108.187 20
      vertex 110.059 -106.283 0
      vertex 110.059 -106.283 20
    endloop
  endfacet
  facet normal 0.713074 -0.701089 0
    outer loop
      vertex 110.059 -106.283 0
      vertex 108.187 -108.187 20
      vertex 108.187 -108.187 0
    endloop
  endfacet
  facet normal 0.737325 -0.675538 0
    outer loop
      vertex 111.897 -104.346 20
      vertex 113.701 -102.377 0
      vertex 113.701 -102.377 20
    endloop
  endfacet
  facet normal 0.737325 -0.675538 0
    outer loop
      vertex 113.701 -102.377 0
      vertex 111.897 -104.346 20
      vertex 111.897 -104.346 0
    endloop
  endfacet
  facet normal 0.760445 -0.649402 0
    outer loop
      vertex 115.471 -100.377 20
      vertex 117.205 -98.3465 0
      vertex 117.205 -98.3465 20
    endloop
  endfacet
  facet normal 0.760445 -0.649402 0
    outer loop
      vertex 117.205 -98.3465 0
      vertex 115.471 -100.377 20
      vertex 115.471 -100.377 0
    endloop
  endfacet
  facet normal 0.649402 -0.760445 0
    outer loop
      vertex 98.3465 -117.205 0
      vertex 100.377 -115.471 20
      vertex 98.3465 -117.205 20
    endloop
  endfacet
  facet normal 0.649402 -0.760445 0
    outer loop
      vertex 100.377 -115.471 20
      vertex 98.3465 -117.205 0
      vertex 100.377 -115.471 0
    endloop
  endfacet
  facet normal 0.675538 -0.737325 0
    outer loop
      vertex 102.377 -113.701 0
      vertex 104.346 -111.897 20
      vertex 102.377 -113.701 20
    endloop
  endfacet
  facet normal 0.675538 -0.737325 0
    outer loop
      vertex 104.346 -111.897 20
      vertex 102.377 -113.701 0
      vertex 104.346 -111.897 0
    endloop
  endfacet
  facet normal 0.636015 -0.771677 0
    outer loop
      vertex 97.1332 -118.205 0
      vertex 98.3465 -117.205 20
      vertex 97.1332 -118.205 20
    endloop
  endfacet
  facet normal 0.636015 -0.771677 0
    outer loop
      vertex 98.3465 -117.205 20
      vertex 97.1332 -118.205 0
      vertex 98.3465 -117.205 0
    endloop
  endfacet
  facet normal 0 0 -1
    outer loop
      vertex 114.983 -96.4824 0
      vertex 118.205 -97.1332 0
      vertex 117.205 -98.3465 0
    endloop
  endfacet
  facet normal 0 0 -1
    outer loop
      vertex 114.983 -96.4824 0
      vertex 117.205 -98.3465 0
      vertex 115.471 -100.377 0
    endloop
  endfacet
  facet normal 0 0 -1
    outer loop
      vertex 118.205 -97.1332 0
      vertex 114.983 -96.4824 0
      vertex 116.145 -95.0732 0
    endloop
  endfacet
  facet normal 0 0 -1
    outer loop
      vertex 113.282 -98.4745 0
      vertex 115.471 -100.377 0
      vertex 113.701 -102.377 0
    endloop
  endfacet
  facet normal 0 0 -1
    outer loop
      vertex 115.471 -100.377 0
      vertex 113.282 -98.4745 0
      vertex 114.983 -96.4824 0
    endloop
  endfacet
  facet normal 0 0 -1
    outer loop
      vertex 111.546 -100.437 0
      vertex 113.701 -102.377 0
      vertex 111.897 -104.346 0
    endloop
  endfacet
  facet normal 0 0 -1
    outer loop
      vertex 113.701 -102.377 0
      vertex 111.546 -100.437 0
      vertex 113.282 -98.4745 0
    endloop
  endfacet
  facet normal 0 0 -1
    outer loop
      vertex 109.776 -102.368 0
      vertex 111.897 -104.346 0
      vertex 110.059 -106.283 0
    endloop
  endfacet
  facet normal 0 0 -1
    outer loop
      vertex 111.897 -104.346 0
      vertex 109.776 -102.368 0
      vertex 111.546 -100.437 0
    endloop
  endfacet
  facet normal 0 0 -1
    outer loop
      vertex 107.973 -104.268 0
      vertex 110.059 -106.283 0
      vertex 108.187 -108.187 0
    endloop
  endfacet
  facet normal 0 0 -1
    outer loop
      vertex 110.059 -106.283 0
      vertex 107.973 -104.268 0
      vertex 109.776 -102.368 0
    endloop
  endfacet
  facet normal 0 0 -1
    outer loop
      vertex 106.137 -106.137 0
      vertex 108.187 -108.187 0
      vertex 106.283 -110.059 0
    endloop
  endfacet
  facet normal 0 0 -1
    outer loop
      vertex 108.187 -108.187 0
      vertex 106.137 -106.137 0
      vertex 107.973 -104.268 0
    endloop
  endfacet
  facet normal 0 0 -1
    outer loop
      vertex 104.268 -107.973 0
      vertex 106.283 -110.059 0
      vertex 104.346 -111.897 0
    endloop
  endfacet
  facet normal 0 0 -1
    outer loop
      vertex 106.283 -110.059 0
      vertex 104.268 -107.973 0
      vertex 106.137 -106.137 0
    endloop
  endfacet
  facet normal 0 0 -1
    outer loop
      vertex 102.368 -109.776 0
      vertex 104.346 -111.897 0
      vertex 102.377 -113.701 0
    endloop
  endfacet
  facet normal 0 0 -1
    outer loop
      vertex 104.346 -111.897 0
      vertex 102.368 -109.776 0
      vertex 104.268 -107.973 0
    endloop
  endfacet
  facet normal 0 0 -1
    outer loop
      vertex 102.377 -113.701 0
      vertex 100.437 -111.546 0
      vertex 102.368 -109.776 0
    endloop
  endfacet
  facet normal 0 0 -1
    outer loop
      vertex 100.377 -115.471 0
      vertex 100.437 -111.546 0
      vertex 102.377 -113.701 0
    endloop
  endfacet
  facet normal 0 0 -1
    outer loop
      vertex 100.377 -115.471 0
      vertex 98.4745 -113.282 0
      vertex 100.437 -111.546 0
    endloop
  endfacet
  facet normal 0 0 -1
    outer loop
      vertex 98.3465 -117.205 0
      vertex 98.4745 -113.282 0
      vertex 100.377 -115.471 0
    endloop
  endfacet
  facet normal 0 0 -1
    outer loop
      vertex 96.4824 -114.983 0
      vertex 98.3465 -117.205 0
      vertex 97.1332 -118.205 0
    endloop
  endfacet
  facet normal 0 0 -1
    outer loop
      vertex 98.3465 -117.205 0
      vertex 96.4824 -114.983 0
      vertex 98.4745 -113.282 0
    endloop
  endfacet
  facet normal 0 -0 -1
    outer loop
      vertex 96.4824 -114.983 0
      vertex 97.1332 -118.205 0
      vertex 95.0732 -116.145 0
    endloop
  endfacet
  facet normal 0 0 -1
    outer loop
      vertex 110.31 -92.5614 0
      vertex 113.872 -92.8001 0
      vertex 112.532 -94.4255 0
    endloop
  endfacet
  facet normal 0 0 -1
    outer loop
      vertex 110.31 -92.5614 0
      vertex 112.532 -94.4255 0
      vertex 110.867 -96.3751 0
    endloop
  endfacet
  facet normal 0 0 -1
    outer loop
      vertex 113.872 -92.8001 0
      vertex 110.31 -92.5614 0
      vertex 111.812 -90.74 0
    endloop
  endfacet
  facet normal 0 0 -1
    outer loop
      vertex 108.678 -94.4725 0
      vertex 110.867 -96.3751 0
      vertex 109.168 -98.2953 0
    endloop
  endfacet
  facet normal 0 0 -1
    outer loop
      vertex 110.867 -96.3751 0
      vertex 108.678 -94.4725 0
      vertex 110.31 -92.5614 0
    endloop
  endfacet
  facet normal 0 0 -1
    outer loop
      vertex 107.013 -96.3548 0
      vertex 109.168 -98.2953 0
      vertex 107.436 -100.186 0
    endloop
  endfacet
  facet normal 0 0 -1
    outer loop
      vertex 109.168 -98.2953 0
      vertex 107.013 -96.3548 0
      vertex 108.678 -94.4725 0
    endloop
  endfacet
  facet normal 0 0 -1
    outer loop
      vertex 105.315 -98.2078 0
      vertex 107.436 -100.186 0
      vertex 105.671 -102.045 0
    endloop
  endfacet
  facet normal 0 0 -1
    outer loop
      vertex 107.436 -100.186 0
      vertex 105.315 -98.2078 0
      vertex 107.013 -96.3548 0
    endloop
  endfacet
  facet normal 0 0 -1
    outer loop
      vertex 103.585 -100.031 0
      vertex 105.671 -102.045 0
      vertex 103.874 -103.874 0
    endloop
  endfacet
  facet normal 0 0 -1
    outer loop
      vertex 105.671 -102.045 0
      vertex 103.585 -100.031 0
      vertex 105.315 -98.2078 0
    endloop
  endfacet
  facet normal 0 0 -1
    outer loop
      vertex 101.823 -101.823 0
      vertex 103.874 -103.874 0
      vertex 102.045 -105.671 0
    endloop
  endfacet
  facet normal 0 0 -1
    outer loop
      vertex 103.874 -103.874 0
      vertex 101.823 -101.823 0
      vertex 103.585 -100.031 0
    endloop
  endfacet
  facet normal 0 0 -1
    outer loop
      vertex 100.031 -103.585 0
      vertex 102.045 -105.671 0
      vertex 100.186 -107.436 0
    endloop
  endfacet
  facet normal 0 0 -1
    outer loop
      vertex 102.045 -105.671 0
      vertex 100.031 -103.585 0
      vertex 101.823 -101.823 0
    endloop
  endfacet
  facet normal 0 0 -1
    outer loop
      vertex 98.2078 -105.315 0
      vertex 100.186 -107.436 0
      vertex 98.2953 -109.168 0
    endloop
  endfacet
  facet normal 0 0 -1
    outer loop
      vertex 100.186 -107.436 0
      vertex 98.2078 -105.315 0
      vertex 100.031 -103.585 0
    endloop
  endfacet
  facet normal 0 0 -1
    outer loop
      vertex 96.3548 -107.013 0
      vertex 98.2953 -109.168 0
      vertex 96.3751 -110.867 0
    endloop
  endfacet
  facet normal 0 0 -1
    outer loop
      vertex 98.2953 -109.168 0
      vertex 96.3548 -107.013 0
      vertex 98.2078 -105.315 0
    endloop
  endfacet
  facet normal 0 0 -1
    outer loop
      vertex 96.3751 -110.867 0
      vertex 94.4725 -108.678 0
      vertex 96.3548 -107.013 0
    endloop
  endfacet
  facet normal 0 0 -1
    outer loop
      vertex 94.4255 -112.532 0
      vertex 94.4725 -108.678 0
      vertex 96.3751 -110.867 0
    endloop
  endfacet
  facet normal 0 0 -1
    outer loop
      vertex 92.5614 -110.31 0
      vertex 94.4255 -112.532 0
      vertex 92.8001 -113.872 0
    endloop
  endfacet
  facet normal 0 0 -1
    outer loop
      vertex 94.4255 -112.532 0
      vertex 92.5614 -110.31 0
      vertex 94.4725 -108.678 0
    endloop
  endfacet
  facet normal 0 -0 -1
    outer loop
      vertex 92.5614 -110.31 0
      vertex 92.8001 -113.872 0
      vertex 90.74 -111.812 0
    endloop
  endfacet
  facet normal 0 0 1
    outer loop
      vertex 110.31 -92.5614 20
      vertex 117.205 -98.3465 20
      vertex 118.205 -97.1332 20
    endloop
  endfacet
  facet normal 0 0 1
    outer loop
      vertex 117.205 -98.3465 20
      vertex 110.31 -92.5614 20
      vertex 115.471 -100.377 20
    endloop
  endfacet
  facet normal 0 0 1
    outer loop
      vertex 115.471 -100.377 20
      vertex 108.678 -94.4725 20
      vertex 113.701 -102.377 20
    endloop
  endfacet
  facet normal -0 0 1
    outer loop
      vertex 110.31 -92.5614 20
      vertex 118.205 -97.1332 20
      vertex 111.812 -90.74 20
    endloop
  endfacet
  facet normal 0 0 1
    outer loop
      vertex 115.471 -100.377 20
      vertex 110.31 -92.5614 20
      vertex 108.678 -94.4725 20
    endloop
  endfacet
  facet normal -0 0 1
    outer loop
      vertex 107.013 -96.3548 20
      vertex 113.701 -102.377 20
      vertex 108.678 -94.4725 20
    endloop
  endfacet
  facet normal 0 0 1
    outer loop
      vertex 113.701 -102.377 20
      vertex 107.013 -96.3548 20
      vertex 111.897 -104.346 20
    endloop
  endfacet
  facet normal -0 0 1
    outer loop
      vertex 105.315 -98.2078 20
      vertex 111.897 -104.346 20
      vertex 107.013 -96.3548 20
    endloop
  endfacet
  facet normal 0 0 1
    outer loop
      vertex 111.897 -104.346 20
      vertex 105.315 -98.2078 20
      vertex 110.059 -106.283 20
    endloop
  endfacet
  facet normal -0 0 1
    outer loop
      vertex 103.585 -100.031 20
      vertex 110.059 -106.283 20
      vertex 105.315 -98.2078 20
    endloop
  endfacet
  facet normal 0 0 1
    outer loop
      vertex 110.059 -106.283 20
      vertex 103.585 -100.031 20
      vertex 108.187 -108.187 20
    endloop
  endfacet
  facet normal -0 0 1
    outer loop
      vertex 101.823 -101.823 20
      vertex 108.187 -108.187 20
      vertex 103.585 -100.031 20
    endloop
  endfacet
  facet normal 0 0 1
    outer loop
      vertex 108.187 -108.187 20
      vertex 101.823 -101.823 20
      vertex 106.283 -110.059 20
    endloop
  endfacet
  facet normal -0 0 1
    outer loop
      vertex 100.031 -103.585 20
      vertex 106.283 -110.059 20
      vertex 101.823 -101.823 20
    endloop
  endfacet
  facet normal 0 0 1
    outer loop
      vertex 106.283 -110.059 20
      vertex 100.031 -103.585 20
      vertex 104.346 -111.897 20
    endloop
  endfacet
  facet normal -0 0 1
    outer loop
      vertex 98.2078 -105.315 20
      vertex 104.346 -111.897 20
      vertex 100.031 -103.585 20
    endloop
  endfacet
  facet normal 0 0 1
    outer loop
      vertex 104.346 -111.897 20
      vertex 98.2078 -105.315 20
      vertex 102.377 -113.701 20
    endloop
  endfacet
  facet normal -0 0 1
    outer loop
      vertex 96.3548 -107.013 20
      vertex 102.377 -113.701 20
      vertex 98.2078 -105.315 20
    endloop
  endfacet
  facet normal 0 0 1
    outer loop
      vertex 102.377 -113.701 20
      vertex 96.3548 -107.013 20
      vertex 100.377 -115.471 20
    endloop
  endfacet
  facet normal -0 0 1
    outer loop
      vertex 94.4725 -108.678 20
      vertex 100.377 -115.471 20
      vertex 96.3548 -107.013 20
    endloop
  endfacet
  facet normal 0 0 1
    outer loop
      vertex 100.377 -115.471 20
      vertex 94.4725 -108.678 20
      vertex 98.3465 -117.205 20
    endloop
  endfacet
  facet normal -0 0 1
    outer loop
      vertex 92.5614 -110.31 20
      vertex 98.3465 -117.205 20
      vertex 94.4725 -108.678 20
    endloop
  endfacet
  facet normal 0 0 1
    outer loop
      vertex 98.3465 -117.205 20
      vertex 92.5614 -110.31 20
      vertex 97.1332 -118.205 20
    endloop
  endfacet
  facet normal 0 0 1
    outer loop
      vertex 97.1332 -118.205 20
      vertex 92.5614 -110.31 20
      vertex 90.74 -111.812 20
    endloop
  endfacet
  facet normal 0.662735 -0.748854 0
    outer loop
      vertex 100.377 -115.471 0
      vertex 102.377 -113.701 20
      vertex 100.377 -115.471 20
    endloop
  endfacet
  facet normal 0.662735 -0.748854 0
    outer loop
      vertex 102.377 -113.701 20
      vertex 100.377 -115.471 0
      vertex 102.377 -113.701 0
    endloop
  endfacet
  facet normal 0.701089 -0.713074 0
    outer loop
      vertex 106.283 -110.059 0
      vertex 108.187 -108.187 20
      vertex 106.283 -110.059 20
    endloop
  endfacet
  facet normal 0.701089 -0.713074 0
    outer loop
      vertex 108.187 -108.187 20
      vertex 106.283 -110.059 0
      vertex 108.187 -108.187 0
    endloop
  endfacet
  facet normal -0.73727 0.675598 0
    outer loop
      vertex 105.315 -98.2078 0
      vertex 107.013 -96.3548 20
      vertex 107.013 -96.3548 0
    endloop
  endfacet
  facet normal -0.73727 0.675598 0
    outer loop
      vertex 107.013 -96.3548 20
      vertex 105.315 -98.2078 0
      vertex 105.315 -98.2078 20
    endloop
  endfacet
  facet normal -0.688323 0.725405 0
    outer loop
      vertex 100.031 -103.585 0
      vertex 98.2078 -105.315 20
      vertex 100.031 -103.585 20
    endloop
  endfacet
  facet normal -0.688323 0.725405 0
    outer loop
      vertex 98.2078 -105.315 20
      vertex 100.031 -103.585 0
      vertex 98.2078 -105.315 0
    endloop
  endfacet
  facet normal -0.749019 0.662549 0
    outer loop
      vertex 107.013 -96.3548 0
      vertex 108.678 -94.4725 20
      vertex 108.678 -94.4725 0
    endloop
  endfacet
  facet normal -0.749019 0.662549 0
    outer loop
      vertex 108.678 -94.4725 20
      vertex 107.013 -96.3548 0
      vertex 107.013 -96.3548 20
    endloop
  endfacet
  facet normal -0.71305 0.701113 0
    outer loop
      vertex 101.823 -101.823 0
      vertex 103.585 -100.031 20
      vertex 103.585 -100.031 0
    endloop
  endfacet
  facet normal -0.71305 0.701113 0
    outer loop
      vertex 103.585 -100.031 20
      vertex 101.823 -101.823 0
      vertex 101.823 -101.823 20
    endloop
  endfacet
  facet normal -0.636218 0.771509 0
    outer loop
      vertex 92.5614 -110.31 0
      vertex 90.74 -111.812 20
      vertex 92.5614 -110.31 20
    endloop
  endfacet
  facet normal -0.636218 0.771509 0
    outer loop
      vertex 90.74 -111.812 20
      vertex 92.5614 -110.31 0
      vertex 90.74 -111.812 0
    endloop
  endfacet
  facet normal -0.725405 0.688323 0
    outer loop
      vertex 103.585 -100.031 0
      vertex 105.315 -98.2078 20
      vertex 105.315 -98.2078 0
    endloop
  endfacet
  facet normal -0.725405 0.688323 0
    outer loop
      vertex 105.315 -98.2078 20
      vertex 103.585 -100.031 0
      vertex 103.585 -100.031 20
    endloop
  endfacet
  facet normal -0.760452 0.649394 0
    outer loop
      vertex 108.678 -94.4725 0
      vertex 110.31 -92.5614 20
      vertex 110.31 -92.5614 0
    endloop
  endfacet
  facet normal -0.760452 0.649394 0
    outer loop
      vertex 110.31 -92.5614 20
      vertex 108.678 -94.4725 0
      vertex 108.678 -94.4725 20
    endloop
  endfacet
  facet normal -0.675598 0.73727 0
    outer loop
      vertex 98.2078 -105.315 0
      vertex 96.3548 -107.013 20
      vertex 98.2078 -105.315 20
    endloop
  endfacet
  facet normal -0.675598 0.73727 0
    outer loop
      vertex 96.3548 -107.013 20
      vertex 98.2078 -105.315 0
      vertex 96.3548 -107.013 0
    endloop
  endfacet
  facet normal -0.649394 0.760452 0
    outer loop
      vertex 94.4725 -108.678 0
      vertex 92.5614 -110.31 20
      vertex 94.4725 -108.678 20
    endloop
  endfacet
  facet normal -0.649394 0.760452 0
    outer loop
      vertex 92.5614 -110.31 20
      vertex 94.4725 -108.678 0
      vertex 92.5614 -110.31 0
    endloop
  endfacet
  facet normal -0.662549 0.749019 0
    outer loop
      vertex 96.3548 -107.013 0
      vertex 94.4725 -108.678 20
      vertex 96.3548 -107.013 20
    endloop
  endfacet
  facet normal -0.662549 0.749019 0
    outer loop
      vertex 94.4725 -108.678 20
      vertex 96.3548 -107.013 0
      vertex 94.4725 -108.678 0
    endloop
  endfacet
  facet normal -0.771509 0.636218 0
    outer loop
      vertex 110.31 -92.5614 0
      vertex 111.812 -90.74 20
      vertex 111.812 -90.74 0
    endloop
  endfacet
  facet normal -0.771509 0.636218 0
    outer loop
      vertex 111.812 -90.74 20
      vertex 110.31 -92.5614 0
      vertex 110.31 -92.5614 20
    endloop
  endfacet
  facet normal -0.701113 0.71305 0
    outer loop
      vertex 101.823 -101.823 0
      vertex 100.031 -103.585 20
      vertex 101.823 -101.823 20
    endloop
  endfacet
  facet normal -0.701113 0.71305 0
    outer loop
      vertex 100.031 -103.585 20
      vertex 101.823 -101.823 0
      vertex 100.031 -103.585 0
    endloop
  endfacet
  facet normal -0.707107 -0.707107 0
    outer loop
      vertex 95.0732 -116.145 0
      vertex 97.1332 -118.205 0
      vertex 95.0732 -116.145 10
    endloop
  endfacet
  facet normal -0.70709 -0.707124 -0
    outer loop
      vertex 92.8001 -113.872 10
      vertex 90.74 -111.812 0
      vertex 92.8001 -113.872 0
    endloop
  endfacet
  facet normal -0.70709 -0.707124 0
    outer loop
      vertex 90.74 -111.812 0
      vertex 92.8001 -113.872 10
      vertex 90.74 -111.812 20
    endloop
  endfacet
  facet normal -0.707091 -0.707122 -6.62606e-07
    outer loop
      vertex 95.0732 -116.145 10
      vertex 90.74 -111.812 20
      vertex 92.8001 -113.872 10
    endloop
  endfacet
  facet normal -0.707096 -0.707118 -4.55691e-06
    outer loop
      vertex 95.0732 -116.145 10
      vertex 97.1332 -118.205 20
      vertex 90.74 -111.812 20
    endloop
  endfacet
  facet normal -0.707107 -0.707107 -0
    outer loop
      vertex 97.1332 -118.205 20
      vertex 95.0732 -116.145 10
      vertex 97.1332 -118.205 0
    endloop
  endfacet
  facet normal 0.707118 0.707096 -4.55691e-06
    outer loop
      vertex 118.205 -97.1332 20
      vertex 116.145 -95.0732 10
      vertex 111.812 -90.74 20
    endloop
  endfacet
  facet normal 0.707107 0.707107 -0
    outer loop
      vertex 118.205 -97.1332 0
      vertex 116.145 -95.0732 10
      vertex 118.205 -97.1332 20
    endloop
  endfacet
  facet normal 0.707107 0.707107 0
    outer loop
      vertex 116.145 -95.0732 10
      vertex 118.205 -97.1332 0
      vertex 116.145 -95.0732 0
    endloop
  endfacet
  facet normal 0.707122 0.707091 -6.62606e-07
    outer loop
      vertex 113.872 -92.8001 10
      vertex 111.812 -90.74 20
      vertex 116.145 -95.0732 10
    endloop
  endfacet
  facet normal 0.707124 0.70709 0
    outer loop
      vertex 111.812 -90.74 0
      vertex 113.872 -92.8001 10
      vertex 113.872 -92.8001 0
    endloop
  endfacet
  facet normal 0.707124 0.70709 0
    outer loop
      vertex 113.872 -92.8001 10
      vertex 111.812 -90.74 0
      vertex 111.812 -90.74 20
    endloop
  endfacet
  facet normal -0.725381 0.688348 0
    outer loop
      vertex 107.973 -104.268 0
      vertex 109.776 -102.368 10
      vertex 109.776 -102.368 0
    endloop
  endfacet
  facet normal -0.725381 0.688348 0
    outer loop
      vertex 109.776 -102.368 10
      vertex 107.973 -104.268 0
      vertex 107.973 -104.268 10
    endloop
  endfacet
  facet normal 0 0 -1
    outer loop
      vertex 112.532 -94.4255 10
      vertex 116.145 -95.0732 10
      vertex 114.983 -96.4824 10
    endloop
  endfacet
  facet normal 0 0 -1
    outer loop
      vertex 112.532 -94.4255 10
      vertex 114.983 -96.4824 10
      vertex 113.282 -98.4745 10
    endloop
  endfacet
  facet normal 0 0 -1
    outer loop
      vertex 116.145 -95.0732 10
      vertex 112.532 -94.4255 10
      vertex 113.872 -92.8001 10
    endloop
  endfacet
  facet normal 0 0 -1
    outer loop
      vertex 110.867 -96.3751 10
      vertex 113.282 -98.4745 10
      vertex 111.546 -100.437 10
    endloop
  endfacet
  facet normal 0 0 -1
    outer loop
      vertex 113.282 -98.4745 10
      vertex 110.867 -96.3751 10
      vertex 112.532 -94.4255 10
    endloop
  endfacet
  facet normal 0 0 -1
    outer loop
      vertex 109.168 -98.2953 10
      vertex 111.546 -100.437 10
      vertex 109.776 -102.368 10
    endloop
  endfacet
  facet normal 0 0 -1
    outer loop
      vertex 111.546 -100.437 10
      vertex 109.168 -98.2953 10
      vertex 110.867 -96.3751 10
    endloop
  endfacet
  facet normal 0 0 -1
    outer loop
      vertex 107.436 -100.186 10
      vertex 109.776 -102.368 10
      vertex 107.973 -104.268 10
    endloop
  endfacet
  facet normal 0 0 -1
    outer loop
      vertex 109.776 -102.368 10
      vertex 107.436 -100.186 10
      vertex 109.168 -98.2953 10
    endloop
  endfacet
  facet normal 0 0 -1
    outer loop
      vertex 105.671 -102.045 10
      vertex 107.973 -104.268 10
      vertex 106.137 -106.137 10
    endloop
  endfacet
  facet normal 0 0 -1
    outer loop
      vertex 107.973 -104.268 10
      vertex 105.671 -102.045 10
      vertex 107.436 -100.186 10
    endloop
  endfacet
  facet normal 0 0 -1
    outer loop
      vertex 103.874 -103.874 10
      vertex 106.137 -106.137 10
      vertex 104.268 -107.973 10
    endloop
  endfacet
  facet normal 0 0 -1
    outer loop
      vertex 106.137 -106.137 10
      vertex 103.874 -103.874 10
      vertex 105.671 -102.045 10
    endloop
  endfacet
  facet normal 0 0 -1
    outer loop
      vertex 102.045 -105.671 10
      vertex 104.268 -107.973 10
      vertex 102.368 -109.776 10
    endloop
  endfacet
  facet normal 0 0 -1
    outer loop
      vertex 104.268 -107.973 10
      vertex 102.045 -105.671 10
      vertex 103.874 -103.874 10
    endloop
  endfacet
  facet normal 0 0 -1
    outer loop
      vertex 100.186 -107.436 10
      vertex 102.368 -109.776 10
      vertex 100.437 -111.546 10
    endloop
  endfacet
  facet normal 0 0 -1
    outer loop
      vertex 102.368 -109.776 10
      vertex 100.186 -107.436 10
      vertex 102.045 -105.671 10
    endloop
  endfacet
  facet normal 0 0 -1
    outer loop
      vertex 98.2953 -109.168 10
      vertex 100.437 -111.546 10
      vertex 98.4745 -113.282 10
    endloop
  endfacet
  facet normal 0 0 -1
    outer loop
      vertex 100.437 -111.546 10
      vertex 98.2953 -109.168 10
      vertex 100.186 -107.436 10
    endloop
  endfacet
  facet normal 0 0 -1
    outer loop
      vertex 96.3751 -110.867 10
      vertex 98.4745 -113.282 10
      vertex 96.4824 -114.983 10
    endloop
  endfacet
  facet normal 0 0 -1
    outer loop
      vertex 98.4745 -113.282 10
      vertex 96.3751 -110.867 10
      vertex 98.2953 -109.168 10
    endloop
  endfacet
  facet normal 0 0 -1
    outer loop
      vertex 94.4255 -112.532 10
      vertex 96.4824 -114.983 10
      vertex 95.0732 -116.145 10
    endloop
  endfacet
  facet normal 0 0 -1
    outer loop
      vertex 96.4824 -114.983 10
      vertex 94.4255 -112.532 10
      vertex 96.3751 -110.867 10
    endloop
  endfacet
  facet normal 0 -0 -1
    outer loop
      vertex 94.4255 -112.532 10
      vertex 95.0732 -116.145 10
      vertex 92.8001 -113.872 10
    endloop
  endfacet
  facet normal -0.700781 0.713377 0
    outer loop
      vertex 106.137 -106.137 0
      vertex 104.268 -107.973 10
      vertex 106.137 -106.137 10
    endloop
  endfacet
  facet normal -0.700781 0.713377 0
    outer loop
      vertex 104.268 -107.973 10
      vertex 106.137 -106.137 0
      vertex 104.268 -107.973 0
    endloop
  endfacet
  facet normal -0.649357 0.760484 0
    outer loop
      vertex 98.4745 -113.282 0
      vertex 96.4824 -114.983 10
      vertex 98.4745 -113.282 10
    endloop
  endfacet
  facet normal -0.649357 0.760484 0
    outer loop
      vertex 96.4824 -114.983 10
      vertex 98.4745 -113.282 0
      vertex 96.4824 -114.983 0
    endloop
  endfacet
  facet normal -0.760484 0.649357 0
    outer loop
      vertex 113.282 -98.4745 0
      vertex 114.983 -96.4824 10
      vertex 114.983 -96.4824 0
    endloop
  endfacet
  facet normal -0.760484 0.649357 0
    outer loop
      vertex 114.983 -96.4824 10
      vertex 113.282 -98.4745 0
      vertex 113.282 -98.4745 10
    endloop
  endfacet
  facet normal -0.749007 0.662562 0
    outer loop
      vertex 111.546 -100.437 0
      vertex 113.282 -98.4745 10
      vertex 113.282 -98.4745 0
    endloop
  endfacet
  facet normal -0.749007 0.662562 0
    outer loop
      vertex 113.282 -98.4745 10
      vertex 111.546 -100.437 0
      vertex 111.546 -100.437 10
    endloop
  endfacet
  facet normal -0.713377 0.700781 0
    outer loop
      vertex 106.137 -106.137 0
      vertex 107.973 -104.268 10
      vertex 107.973 -104.268 0
    endloop
  endfacet
  facet normal -0.713377 0.700781 0
    outer loop
      vertex 107.973 -104.268 10
      vertex 106.137 -106.137 0
      vertex 106.137 -106.137 10
    endloop
  endfacet
  facet normal -0.636191 0.771532 0
    outer loop
      vertex 96.4824 -114.983 0
      vertex 95.0732 -116.145 10
      vertex 96.4824 -114.983 10
    endloop
  endfacet
  facet normal -0.636191 0.771532 0
    outer loop
      vertex 95.0732 -116.145 10
      vertex 96.4824 -114.983 0
      vertex 95.0732 -116.145 0
    endloop
  endfacet
  facet normal -0.771532 0.636191 0
    outer loop
      vertex 114.983 -96.4824 0
      vertex 116.145 -95.0732 10
      vertex 116.145 -95.0732 0
    endloop
  endfacet
  facet normal -0.771532 0.636191 0
    outer loop
      vertex 116.145 -95.0732 10
      vertex 114.983 -96.4824 0
      vertex 114.983 -96.4824 10
    endloop
  endfacet
  facet normal -0.73717 0.675707 0
    outer loop
      vertex 109.776 -102.368 0
      vertex 111.546 -100.437 10
      vertex 111.546 -100.437 0
    endloop
  endfacet
  facet normal -0.73717 0.675707 0
    outer loop
      vertex 111.546 -100.437 10
      vertex 109.776 -102.368 0
      vertex 109.776 -102.368 10
    endloop
  endfacet
  facet normal -0.688348 0.725381 0
    outer loop
      vertex 104.268 -107.973 0
      vertex 102.368 -109.776 10
      vertex 104.268 -107.973 10
    endloop
  endfacet
  facet normal -0.688348 0.725381 0
    outer loop
      vertex 102.368 -109.776 10
      vertex 104.268 -107.973 0
      vertex 102.368 -109.776 0
    endloop
  endfacet
  facet normal -0.662562 0.749007 0
    outer loop
      vertex 100.437 -111.546 0
      vertex 98.4745 -113.282 10
      vertex 100.437 -111.546 10
    endloop
  endfacet
  facet normal -0.662562 0.749007 0
    outer loop
      vertex 98.4745 -113.282 10
      vertex 100.437 -111.546 0
      vertex 98.4745 -113.282 0
    endloop
  endfacet
  facet normal -0.675707 0.73717 0
    outer loop
      vertex 102.368 -109.776 0
      vertex 100.437 -111.546 10
      vertex 102.368 -109.776 10
    endloop
  endfacet
  facet normal -0.675707 0.73717 0
    outer loop
      vertex 100.437 -111.546 10
      vertex 102.368 -109.776 0
      vertex 100.437 -111.546 0
    endloop
  endfacet
  facet normal 0.675483 -0.737376 0
    outer loop
      vertex 98.2953 -109.168 0
      vertex 100.186 -107.436 10
      vertex 98.2953 -109.168 10
    endloop
  endfacet
  facet normal 0.675483 -0.737376 0
    outer loop
      vertex 100.186 -107.436 10
      vertex 98.2953 -109.168 0
      vertex 100.186 -107.436 0
    endloop
  endfacet
  facet normal 0.725204 -0.688534 0
    outer loop
      vertex 105.671 -102.045 10
      vertex 107.436 -100.186 0
      vertex 107.436 -100.186 10
    endloop
  endfacet
  facet normal 0.725204 -0.688534 0
    outer loop
      vertex 107.436 -100.186 0
      vertex 105.671 -102.045 10
      vertex 105.671 -102.045 0
    endloop
  endfacet
  facet normal 0.713319 -0.700839 0
    outer loop
      vertex 103.874 -103.874 10
      vertex 105.671 -102.045 0
      vertex 105.671 -102.045 10
    endloop
  endfacet
  facet normal 0.713319 -0.700839 0
    outer loop
      vertex 105.671 -102.045 0
      vertex 103.874 -103.874 10
      vertex 103.874 -103.874 0
    endloop
  endfacet
  facet normal 0.688534 -0.725204 0
    outer loop
      vertex 100.186 -107.436 0
      vertex 102.045 -105.671 10
      vertex 100.186 -107.436 10
    endloop
  endfacet
  facet normal 0.688534 -0.725204 0
    outer loop
      vertex 102.045 -105.671 10
      vertex 100.186 -107.436 0
      vertex 102.045 -105.671 0
    endloop
  endfacet
  facet normal 0.636113 -0.771596 0
    outer loop
      vertex 92.8001 -113.872 0
      vertex 94.4255 -112.532 10
      vertex 92.8001 -113.872 10
    endloop
  endfacet
  facet normal 0.636113 -0.771596 0
    outer loop
      vertex 94.4255 -112.532 10
      vertex 92.8001 -113.872 0
      vertex 94.4255 -112.532 0
    endloop
  endfacet
  facet normal 0.771596 -0.636113 0
    outer loop
      vertex 112.532 -94.4255 10
      vertex 113.872 -92.8001 0
      vertex 113.872 -92.8001 10
    endloop
  endfacet
  facet normal 0.771596 -0.636113 0
    outer loop
      vertex 113.872 -92.8001 0
      vertex 112.532 -94.4255 10
      vertex 112.532 -94.4255 0
    endloop
  endfacet
  facet normal 0.649422 -0.760428 0
    outer loop
      vertex 94.4255 -112.532 0
      vertex 96.3751 -110.867 10
      vertex 94.4255 -112.532 10
    endloop
  endfacet
  facet normal 0.649422 -0.760428 0
    outer loop
      vertex 96.3751 -110.867 10
      vertex 94.4255 -112.532 0
      vertex 96.3751 -110.867 0
    endloop
  endfacet
  facet normal 0.737376 -0.675483 0
    outer loop
      vertex 107.436 -100.186 10
      vertex 109.168 -98.2953 0
      vertex 109.168 -98.2953 10
    endloop
  endfacet
  facet normal 0.737376 -0.675483 0
    outer loop
      vertex 109.168 -98.2953 0
      vertex 107.436 -100.186 10
      vertex 107.436 -100.186 0
    endloop
  endfacet
  facet normal 0.748927 -0.662653 0
    outer loop
      vertex 109.168 -98.2953 10
      vertex 110.867 -96.3751 0
      vertex 110.867 -96.3751 10
    endloop
  endfacet
  facet normal 0.748927 -0.662653 0
    outer loop
      vertex 110.867 -96.3751 0
      vertex 109.168 -98.2953 10
      vertex 109.168 -98.2953 0
    endloop
  endfacet
  facet normal 0.760428 -0.649422 0
    outer loop
      vertex 110.867 -96.3751 10
      vertex 112.532 -94.4255 0
      vertex 112.532 -94.4255 10
    endloop
  endfacet
  facet normal 0.760428 -0.649422 0
    outer loop
      vertex 112.532 -94.4255 0
      vertex 110.867 -96.3751 10
      vertex 110.867 -96.3751 0
    endloop
  endfacet
  facet normal 0.662653 -0.748927 0
    outer loop
      vertex 96.3751 -110.867 0
      vertex 98.2953 -109.168 10
      vertex 96.3751 -110.867 10
    endloop
  endfacet
  facet normal 0.662653 -0.748927 0
    outer loop
      vertex 98.2953 -109.168 10
      vertex 96.3751 -110.867 0
      vertex 98.2953 -109.168 0
    endloop
  endfacet
  facet normal 0.700839 -0.713319 0
    outer loop
      vertex 102.045 -105.671 0
      vertex 103.874 -103.874 10
      vertex 102.045 -105.671 10
    endloop
  endfacet
  facet normal 0.700839 -0.713319 0
    outer loop
      vertex 103.874 -103.874 10
      vertex 102.045 -105.671 0
      vertex 103.874 -103.874 0
    endloop
  endfacet
endsolid OpenSCAD_Model
